<!-- Generator: Adobe Illustrator 22.0.1, SVG Export Plug-In  -->
<svg version="1.1"
	 xmlns="http://www.w3.org/2000/svg" xmlns:xlink="http://www.w3.org/1999/xlink" xmlns:a="http://ns.adobe.com/AdobeSVGViewerExtensions/3.0/"
	 x="0px" y="0px" width="112.036px" height="112.04px" viewBox="0 0 112.036 112.04"
	 style="enable-background:new 0 0 112.036 112.04;" xml:space="preserve">
<style type="text/css">
	.st0{fill:#FFFFFF;}
</style>
<defs>
</defs>
<path class="st0" d="M56.019,0C25.079,0,0,25.082,0,56.019c0,30.939,25.079,56.021,56.019,56.021
	c30.938,0,56.018-25.081,56.018-56.021C112.036,25.082,86.957,0,56.019,0z M39.756,51.241v35.11H24.271V53.854v-11.74h15.485V51.241
	z M32.015,35.478c-4.276,0-7.744-3.465-7.744-7.741c0-4.275,3.468-7.742,7.744-7.742c4.276,0,7.742,3.466,7.742,7.742
	C39.756,32.013,36.291,35.478,32.015,35.478z M90.628,62.042v24.309H77.354V64.799c0-5.143-0.567-11.753-7.615-11.753
	c-7.152,0-8.244,5.597-8.244,11.381v21.925H48.604V50.602v-8.488h12.333v5.969h0.191c1.835-3.486,6.326-5.969,13.012-5.969
	c11.273,0,15.102,5.244,16.151,13.583c0.245,1.954,0.339,4.078,0.339,6.345H90.628z"/>
</svg>