<!-- Generator: Adobe Illustrator 22.0.1, SVG Export Plug-In  -->
<svg version="1.1"
	 xmlns="http://www.w3.org/2000/svg" xmlns:xlink="http://www.w3.org/1999/xlink" xmlns:a="http://ns.adobe.com/AdobeSVGViewerExtensions/3.0/"
	 x="0px" y="0px" width="112.038px" height="112.039px" viewBox="0 0 112.038 112.039"
	 style="enable-background:new 0 0 112.038 112.039;" xml:space="preserve">
<style type="text/css">
	.st0{fill:#FFFFFF;}
</style>
<defs>
</defs>
<g>
	<polygon class="st0" points="81.516,41.729 81.516,31.948 81.516,30.483 80.052,30.492 70.27,30.521 70.31,41.766 	"/>
	<path class="st0" d="M56.019,0C25.081,0,0,25.081,0,56.018c0,30.939,25.081,56.021,56.019,56.021
		c30.938,0,56.019-25.081,56.019-56.021C112.038,25.081,86.957,0,56.019,0z M89.198,49.211v4.994v22.17
		c0,7.07-5.755,12.822-12.827,12.822H35.663c-7.072,0-12.822-5.753-12.822-12.822V54.198v-4.987V35.663
		c0-7.071,5.75-12.821,12.822-12.821h40.708c7.072,0,12.827,5.75,12.827,12.821V49.211z"/>
	<path class="st0" d="M56.019,67.695c6.436,0,11.681-5.239,11.681-11.677c0-2.067-0.558-4.007-1.509-5.694
		c-0.216-0.384-0.446-0.758-0.702-1.113c-2.126-2.942-5.572-4.868-9.469-4.868c-3.897,0-7.343,1.926-9.47,4.868
		c-0.255,0.355-0.485,0.729-0.702,1.112c-0.952,1.688-1.509,3.627-1.509,5.695C44.339,62.456,49.578,67.695,56.019,67.695z"/>
	<path class="st0" d="M73.466,51.082c0.449,1.57,0.698,3.225,0.698,4.937c0,10.005-8.14,18.145-18.144,18.145
		s-18.144-8.14-18.144-18.145c0-1.712,0.246-3.366,0.694-4.936c0.181-0.639,0.392-1.264,0.64-1.872h-9.905v3.44v23.725
		c0,3.508,2.851,6.359,6.358,6.359h40.708c3.508,0,6.363-2.852,6.363-6.359V52.653v-3.442h-9.909
		C73.071,49.818,73.283,50.444,73.466,51.082z"/>
</g>
</svg>