<!-- Generator: Adobe Illustrator 22.0.1, SVG Export Plug-In  -->
<svg version="1.1"
	 xmlns="http://www.w3.org/2000/svg" xmlns:xlink="http://www.w3.org/1999/xlink" xmlns:a="http://ns.adobe.com/AdobeSVGViewerExtensions/3.0/"
	 x="0px" y="0px" width="112.039px" height="112.037px" viewBox="0 0 112.039 112.037"
	 style="enable-background:new 0 0 112.039 112.037;" xml:space="preserve">
<style type="text/css">
	.st0{fill:#FFFFFF;}
</style>
<defs>
</defs>
<path class="st0" d="M56.02,0C25.081,0,0,25.081,0,56.018c0,30.938,25.081,56.019,56.02,56.019c30.938,0,56.019-25.08,56.019-56.019
	C112.039,25.081,86.957,0,56.02,0z M70.769,50.965l-0.477,5.212h-9.85c0,14.858,0,33.179,0,33.179H47.172c0,0,0-18.139,0-33.179
	h-6.637v-5.252v-8.018h6.581v-5.998c0-5.428,2.586-13.91,13.965-13.91l10.252,0.044v11.371c0,0-6.235,0-7.444,0
	c-1.21,0-2.935,0.602-2.935,3.188v5.307h10.547L70.769,50.965z"/>
</svg>